<svg xmlns="http://www.w3.org/2000/svg" version="1.1" xmlns:xlink="http://www.w3.org/1999/xlink" xmlns:svgjs="http://svgjs.dev/svgjs" viewBox="0 0 800 800"><defs><linearGradient gradientTransform="rotate(270)" x1="50%" y1="0%" x2="50%" y2="100%" id="sssquiggly-grad"><stop stop-color="hsla(272, 99%, 54%, 1.00)" stop-opacity="1" offset="0%"></stop><stop stop-color="hsl(331, 90%, 56%)" stop-opacity="1" offset="100%"></stop></linearGradient></defs><g stroke-width="2" stroke="url(#sssquiggly-grad)" fill="none" stroke-linecap="round" transform="matrix(1,0,0,1,0,58.673030853271484)"><path d="M10,10C21.805555555555557,11.666666666666666,40.97222222222223,26.75,66.66666666666667,18C92.36111111111111,9.25,105.55555555555557,-36.791666666666664,133.33333333333334,-32C161.11111111111111,-27.208333333333332,172.22222222222223,38.708333333333336,200,41C227.77777777777777,43.291666666666664,238.8888888888889,-19.958333333333332,266.6666666666667,-21C294.44444444444446,-22.041666666666668,305.5555555555556,32.875,333.33333333333337,36C361.11111111111114,39.125,372.22222222222223,-8.916666666666668,400,-6C427.77777777777777,-3.083333333333333,438.8888888888889,49.583333333333336,466.6666666666667,50C494.44444444444446,50.416666666666664,505.5555555555556,-0.45833333333333304,533.3333333333334,-4C561.1111111111111,-7.541666666666667,572.2222222222222,32.375,600,33C627.7777777777778,33.625,638.8888888888889,-1.625,666.6666666666667,-1C694.4444444444446,-0.375,707.6388888888889,33.708333333333336,733.3333333333334,36C759.0277777777778,38.291666666666664,778.1944444444445,15.416666666666666,790,10"></path><path d="M10,10C21.805555555555557,11.666666666666666,40.97222222222223,26.75,66.66666666666667,18C92.36111111111111,9.25,105.55555555555557,-36.791666666666664,133.33333333333334,-32C161.11111111111111,-27.208333333333332,172.22222222222223,38.708333333333336,200,41C227.77777777777777,43.291666666666664,238.8888888888889,-19.958333333333332,266.6666666666667,-21C294.44444444444446,-22.041666666666668,305.5555555555556,32.875,333.33333333333337,36C361.11111111111114,39.125,372.22222222222223,-8.916666666666668,400,-6C427.77777777777777,-3.083333333333333,438.8888888888889,49.583333333333336,466.6666666666667,50C494.44444444444446,50.416666666666664,505.5555555555556,-0.45833333333333304,533.3333333333334,-4C561.1111111111111,-7.541666666666667,572.2222222222222,32.375,600,33C627.7777777777778,33.625,638.8888888888889,-1.625,666.6666666666667,-1C694.4444444444446,-0.375,707.6388888888889,33.708333333333336,733.3333333333334,36C759.0277777777778,38.291666666666664,778.1944444444445,15.416666666666666,790,10" transform="matrix(1,0,0,1,0,665)"></path><path d="M10,10C21.805555555555557,11.666666666666666,40.97222222222223,26.75,66.66666666666667,18C92.36111111111111,9.25,105.55555555555557,-36.791666666666664,133.33333333333334,-32C161.11111111111111,-27.208333333333332,172.22222222222223,38.708333333333336,200,41C227.77777777777777,43.291666666666664,238.8888888888889,-19.958333333333332,266.6666666666667,-21C294.44444444444446,-22.041666666666668,305.5555555555556,32.875,333.33333333333337,36C361.11111111111114,39.125,372.22222222222223,-8.916666666666668,400,-6C427.77777777777777,-3.083333333333333,438.8888888888889,49.583333333333336,466.6666666666667,50C494.44444444444446,50.416666666666664,505.5555555555556,-0.45833333333333304,533.3333333333334,-4C561.1111111111111,-7.541666666666667,572.2222222222222,32.375,600,33C627.7777777777778,33.625,638.8888888888889,-1.625,666.6666666666667,-1C694.4444444444446,-0.375,707.6388888888889,33.708333333333336,733.3333333333334,36C759.0277777777778,38.291666666666664,778.1944444444445,15.416666666666666,790,10" transform="matrix(1,0,0,1,0,630)"></path><path d="M10,10C21.805555555555557,11.666666666666666,40.97222222222223,26.75,66.66666666666667,18C92.36111111111111,9.25,105.55555555555557,-36.791666666666664,133.33333333333334,-32C161.11111111111111,-27.208333333333332,172.22222222222223,38.708333333333336,200,41C227.77777777777777,43.291666666666664,238.8888888888889,-19.958333333333332,266.6666666666667,-21C294.44444444444446,-22.041666666666668,305.5555555555556,32.875,333.33333333333337,36C361.11111111111114,39.125,372.22222222222223,-8.916666666666668,400,-6C427.77777777777777,-3.083333333333333,438.8888888888889,49.583333333333336,466.6666666666667,50C494.44444444444446,50.416666666666664,505.5555555555556,-0.45833333333333304,533.3333333333334,-4C561.1111111111111,-7.541666666666667,572.2222222222222,32.375,600,33C627.7777777777778,33.625,638.8888888888889,-1.625,666.6666666666667,-1C694.4444444444446,-0.375,707.6388888888889,33.708333333333336,733.3333333333334,36C759.0277777777778,38.291666666666664,778.1944444444445,15.416666666666666,790,10" transform="matrix(1,0,0,1,0,595)"></path><path d="M10,10C21.805555555555557,11.666666666666666,40.97222222222223,26.75,66.66666666666667,18C92.36111111111111,9.25,105.55555555555557,-36.791666666666664,133.33333333333334,-32C161.11111111111111,-27.208333333333332,172.22222222222223,38.708333333333336,200,41C227.77777777777777,43.291666666666664,238.8888888888889,-19.958333333333332,266.6666666666667,-21C294.44444444444446,-22.041666666666668,305.5555555555556,32.875,333.33333333333337,36C361.11111111111114,39.125,372.22222222222223,-8.916666666666668,400,-6C427.77777777777777,-3.083333333333333,438.8888888888889,49.583333333333336,466.6666666666667,50C494.44444444444446,50.416666666666664,505.5555555555556,-0.45833333333333304,533.3333333333334,-4C561.1111111111111,-7.541666666666667,572.2222222222222,32.375,600,33C627.7777777777778,33.625,638.8888888888889,-1.625,666.6666666666667,-1C694.4444444444446,-0.375,707.6388888888889,33.708333333333336,733.3333333333334,36C759.0277777777778,38.291666666666664,778.1944444444445,15.416666666666666,790,10" transform="matrix(1,0,0,1,0,560)"></path><path d="M10,10C21.805555555555557,11.666666666666666,40.97222222222223,26.75,66.66666666666667,18C92.36111111111111,9.25,105.55555555555557,-36.791666666666664,133.33333333333334,-32C161.11111111111111,-27.208333333333332,172.22222222222223,38.708333333333336,200,41C227.77777777777777,43.291666666666664,238.8888888888889,-19.958333333333332,266.6666666666667,-21C294.44444444444446,-22.041666666666668,305.5555555555556,32.875,333.33333333333337,36C361.11111111111114,39.125,372.22222222222223,-8.916666666666668,400,-6C427.77777777777777,-3.083333333333333,438.8888888888889,49.583333333333336,466.6666666666667,50C494.44444444444446,50.416666666666664,505.5555555555556,-0.45833333333333304,533.3333333333334,-4C561.1111111111111,-7.541666666666667,572.2222222222222,32.375,600,33C627.7777777777778,33.625,638.8888888888889,-1.625,666.6666666666667,-1C694.4444444444446,-0.375,707.6388888888889,33.708333333333336,733.3333333333334,36C759.0277777777778,38.291666666666664,778.1944444444445,15.416666666666666,790,10" transform="matrix(1,0,0,1,0,525)"></path><path d="M10,10C21.805555555555557,11.666666666666666,40.97222222222223,26.75,66.66666666666667,18C92.36111111111111,9.25,105.55555555555557,-36.791666666666664,133.33333333333334,-32C161.11111111111111,-27.208333333333332,172.22222222222223,38.708333333333336,200,41C227.77777777777777,43.291666666666664,238.8888888888889,-19.958333333333332,266.6666666666667,-21C294.44444444444446,-22.041666666666668,305.5555555555556,32.875,333.33333333333337,36C361.11111111111114,39.125,372.22222222222223,-8.916666666666668,400,-6C427.77777777777777,-3.083333333333333,438.8888888888889,49.583333333333336,466.6666666666667,50C494.44444444444446,50.416666666666664,505.5555555555556,-0.45833333333333304,533.3333333333334,-4C561.1111111111111,-7.541666666666667,572.2222222222222,32.375,600,33C627.7777777777778,33.625,638.8888888888889,-1.625,666.6666666666667,-1C694.4444444444446,-0.375,707.6388888888889,33.708333333333336,733.3333333333334,36C759.0277777777778,38.291666666666664,778.1944444444445,15.416666666666666,790,10" transform="matrix(1,0,0,1,0,490)"></path><path d="M10,10C21.805555555555557,11.666666666666666,40.97222222222223,26.75,66.66666666666667,18C92.36111111111111,9.25,105.55555555555557,-36.791666666666664,133.33333333333334,-32C161.11111111111111,-27.208333333333332,172.22222222222223,38.708333333333336,200,41C227.77777777777777,43.291666666666664,238.8888888888889,-19.958333333333332,266.6666666666667,-21C294.44444444444446,-22.041666666666668,305.5555555555556,32.875,333.33333333333337,36C361.11111111111114,39.125,372.22222222222223,-8.916666666666668,400,-6C427.77777777777777,-3.083333333333333,438.8888888888889,49.583333333333336,466.6666666666667,50C494.44444444444446,50.416666666666664,505.5555555555556,-0.45833333333333304,533.3333333333334,-4C561.1111111111111,-7.541666666666667,572.2222222222222,32.375,600,33C627.7777777777778,33.625,638.8888888888889,-1.625,666.6666666666667,-1C694.4444444444446,-0.375,707.6388888888889,33.708333333333336,733.3333333333334,36C759.0277777777778,38.291666666666664,778.1944444444445,15.416666666666666,790,10" transform="matrix(1,0,0,1,0,455)"></path><path d="M10,10C21.805555555555557,11.666666666666666,40.97222222222223,26.75,66.66666666666667,18C92.36111111111111,9.25,105.55555555555557,-36.791666666666664,133.33333333333334,-32C161.11111111111111,-27.208333333333332,172.22222222222223,38.708333333333336,200,41C227.77777777777777,43.291666666666664,238.8888888888889,-19.958333333333332,266.6666666666667,-21C294.44444444444446,-22.041666666666668,305.5555555555556,32.875,333.33333333333337,36C361.11111111111114,39.125,372.22222222222223,-8.916666666666668,400,-6C427.77777777777777,-3.083333333333333,438.8888888888889,49.583333333333336,466.6666666666667,50C494.44444444444446,50.416666666666664,505.5555555555556,-0.45833333333333304,533.3333333333334,-4C561.1111111111111,-7.541666666666667,572.2222222222222,32.375,600,33C627.7777777777778,33.625,638.8888888888889,-1.625,666.6666666666667,-1C694.4444444444446,-0.375,707.6388888888889,33.708333333333336,733.3333333333334,36C759.0277777777778,38.291666666666664,778.1944444444445,15.416666666666666,790,10" transform="matrix(1,0,0,1,0,420)"></path><path d="M10,10C21.805555555555557,11.666666666666666,40.97222222222223,26.75,66.66666666666667,18C92.36111111111111,9.25,105.55555555555557,-36.791666666666664,133.33333333333334,-32C161.11111111111111,-27.208333333333332,172.22222222222223,38.708333333333336,200,41C227.77777777777777,43.291666666666664,238.8888888888889,-19.958333333333332,266.6666666666667,-21C294.44444444444446,-22.041666666666668,305.5555555555556,32.875,333.33333333333337,36C361.11111111111114,39.125,372.22222222222223,-8.916666666666668,400,-6C427.77777777777777,-3.083333333333333,438.8888888888889,49.583333333333336,466.6666666666667,50C494.44444444444446,50.416666666666664,505.5555555555556,-0.45833333333333304,533.3333333333334,-4C561.1111111111111,-7.541666666666667,572.2222222222222,32.375,600,33C627.7777777777778,33.625,638.8888888888889,-1.625,666.6666666666667,-1C694.4444444444446,-0.375,707.6388888888889,33.708333333333336,733.3333333333334,36C759.0277777777778,38.291666666666664,778.1944444444445,15.416666666666666,790,10" transform="matrix(1,0,0,1,0,385)"></path><path d="M10,10C21.805555555555557,11.666666666666666,40.97222222222223,26.75,66.66666666666667,18C92.36111111111111,9.25,105.55555555555557,-36.791666666666664,133.33333333333334,-32C161.11111111111111,-27.208333333333332,172.22222222222223,38.708333333333336,200,41C227.77777777777777,43.291666666666664,238.8888888888889,-19.958333333333332,266.6666666666667,-21C294.44444444444446,-22.041666666666668,305.5555555555556,32.875,333.33333333333337,36C361.11111111111114,39.125,372.22222222222223,-8.916666666666668,400,-6C427.77777777777777,-3.083333333333333,438.8888888888889,49.583333333333336,466.6666666666667,50C494.44444444444446,50.416666666666664,505.5555555555556,-0.45833333333333304,533.3333333333334,-4C561.1111111111111,-7.541666666666667,572.2222222222222,32.375,600,33C627.7777777777778,33.625,638.8888888888889,-1.625,666.6666666666667,-1C694.4444444444446,-0.375,707.6388888888889,33.708333333333336,733.3333333333334,36C759.0277777777778,38.291666666666664,778.1944444444445,15.416666666666666,790,10" transform="matrix(1,0,0,1,0,350)"></path><path d="M10,10C21.805555555555557,11.666666666666666,40.97222222222223,26.75,66.66666666666667,18C92.36111111111111,9.25,105.55555555555557,-36.791666666666664,133.33333333333334,-32C161.11111111111111,-27.208333333333332,172.22222222222223,38.708333333333336,200,41C227.77777777777777,43.291666666666664,238.8888888888889,-19.958333333333332,266.6666666666667,-21C294.44444444444446,-22.041666666666668,305.5555555555556,32.875,333.33333333333337,36C361.11111111111114,39.125,372.22222222222223,-8.916666666666668,400,-6C427.77777777777777,-3.083333333333333,438.8888888888889,49.583333333333336,466.6666666666667,50C494.44444444444446,50.416666666666664,505.5555555555556,-0.45833333333333304,533.3333333333334,-4C561.1111111111111,-7.541666666666667,572.2222222222222,32.375,600,33C627.7777777777778,33.625,638.8888888888889,-1.625,666.6666666666667,-1C694.4444444444446,-0.375,707.6388888888889,33.708333333333336,733.3333333333334,36C759.0277777777778,38.291666666666664,778.1944444444445,15.416666666666666,790,10" transform="matrix(1,0,0,1,0,315)"></path><path d="M10,10C21.805555555555557,11.666666666666666,40.97222222222223,26.75,66.66666666666667,18C92.36111111111111,9.25,105.55555555555557,-36.791666666666664,133.33333333333334,-32C161.11111111111111,-27.208333333333332,172.22222222222223,38.708333333333336,200,41C227.77777777777777,43.291666666666664,238.8888888888889,-19.958333333333332,266.6666666666667,-21C294.44444444444446,-22.041666666666668,305.5555555555556,32.875,333.33333333333337,36C361.11111111111114,39.125,372.22222222222223,-8.916666666666668,400,-6C427.77777777777777,-3.083333333333333,438.8888888888889,49.583333333333336,466.6666666666667,50C494.44444444444446,50.416666666666664,505.5555555555556,-0.45833333333333304,533.3333333333334,-4C561.1111111111111,-7.541666666666667,572.2222222222222,32.375,600,33C627.7777777777778,33.625,638.8888888888889,-1.625,666.6666666666667,-1C694.4444444444446,-0.375,707.6388888888889,33.708333333333336,733.3333333333334,36C759.0277777777778,38.291666666666664,778.1944444444445,15.416666666666666,790,10" transform="matrix(1,0,0,1,0,280)"></path><path d="M10,10C21.805555555555557,11.666666666666666,40.97222222222223,26.75,66.66666666666667,18C92.36111111111111,9.25,105.55555555555557,-36.791666666666664,133.33333333333334,-32C161.11111111111111,-27.208333333333332,172.22222222222223,38.708333333333336,200,41C227.77777777777777,43.291666666666664,238.8888888888889,-19.958333333333332,266.6666666666667,-21C294.44444444444446,-22.041666666666668,305.5555555555556,32.875,333.33333333333337,36C361.11111111111114,39.125,372.22222222222223,-8.916666666666668,400,-6C427.77777777777777,-3.083333333333333,438.8888888888889,49.583333333333336,466.6666666666667,50C494.44444444444446,50.416666666666664,505.5555555555556,-0.45833333333333304,533.3333333333334,-4C561.1111111111111,-7.541666666666667,572.2222222222222,32.375,600,33C627.7777777777778,33.625,638.8888888888889,-1.625,666.6666666666667,-1C694.4444444444446,-0.375,707.6388888888889,33.708333333333336,733.3333333333334,36C759.0277777777778,38.291666666666664,778.1944444444445,15.416666666666666,790,10" transform="matrix(1,0,0,1,0,245)"></path><path d="M10,10C21.805555555555557,11.666666666666666,40.97222222222223,26.75,66.66666666666667,18C92.36111111111111,9.25,105.55555555555557,-36.791666666666664,133.33333333333334,-32C161.11111111111111,-27.208333333333332,172.22222222222223,38.708333333333336,200,41C227.77777777777777,43.291666666666664,238.8888888888889,-19.958333333333332,266.6666666666667,-21C294.44444444444446,-22.041666666666668,305.5555555555556,32.875,333.33333333333337,36C361.11111111111114,39.125,372.22222222222223,-8.916666666666668,400,-6C427.77777777777777,-3.083333333333333,438.8888888888889,49.583333333333336,466.6666666666667,50C494.44444444444446,50.416666666666664,505.5555555555556,-0.45833333333333304,533.3333333333334,-4C561.1111111111111,-7.541666666666667,572.2222222222222,32.375,600,33C627.7777777777778,33.625,638.8888888888889,-1.625,666.6666666666667,-1C694.4444444444446,-0.375,707.6388888888889,33.708333333333336,733.3333333333334,36C759.0277777777778,38.291666666666664,778.1944444444445,15.416666666666666,790,10" transform="matrix(1,0,0,1,0,210)"></path><path d="M10,10C21.805555555555557,11.666666666666666,40.97222222222223,26.75,66.66666666666667,18C92.36111111111111,9.25,105.55555555555557,-36.791666666666664,133.33333333333334,-32C161.11111111111111,-27.208333333333332,172.22222222222223,38.708333333333336,200,41C227.77777777777777,43.291666666666664,238.8888888888889,-19.958333333333332,266.6666666666667,-21C294.44444444444446,-22.041666666666668,305.5555555555556,32.875,333.33333333333337,36C361.11111111111114,39.125,372.22222222222223,-8.916666666666668,400,-6C427.77777777777777,-3.083333333333333,438.8888888888889,49.583333333333336,466.6666666666667,50C494.44444444444446,50.416666666666664,505.5555555555556,-0.45833333333333304,533.3333333333334,-4C561.1111111111111,-7.541666666666667,572.2222222222222,32.375,600,33C627.7777777777778,33.625,638.8888888888889,-1.625,666.6666666666667,-1C694.4444444444446,-0.375,707.6388888888889,33.708333333333336,733.3333333333334,36C759.0277777777778,38.291666666666664,778.1944444444445,15.416666666666666,790,10" transform="matrix(1,0,0,1,0,175)"></path><path d="M10,10C21.805555555555557,11.666666666666666,40.97222222222223,26.75,66.66666666666667,18C92.36111111111111,9.25,105.55555555555557,-36.791666666666664,133.33333333333334,-32C161.11111111111111,-27.208333333333332,172.22222222222223,38.708333333333336,200,41C227.77777777777777,43.291666666666664,238.8888888888889,-19.958333333333332,266.6666666666667,-21C294.44444444444446,-22.041666666666668,305.5555555555556,32.875,333.33333333333337,36C361.11111111111114,39.125,372.22222222222223,-8.916666666666668,400,-6C427.77777777777777,-3.083333333333333,438.8888888888889,49.583333333333336,466.6666666666667,50C494.44444444444446,50.416666666666664,505.5555555555556,-0.45833333333333304,533.3333333333334,-4C561.1111111111111,-7.541666666666667,572.2222222222222,32.375,600,33C627.7777777777778,33.625,638.8888888888889,-1.625,666.6666666666667,-1C694.4444444444446,-0.375,707.6388888888889,33.708333333333336,733.3333333333334,36C759.0277777777778,38.291666666666664,778.1944444444445,15.416666666666666,790,10" transform="matrix(1,0,0,1,0,140)"></path><path d="M10,10C21.805555555555557,11.666666666666666,40.97222222222223,26.75,66.66666666666667,18C92.36111111111111,9.25,105.55555555555557,-36.791666666666664,133.33333333333334,-32C161.11111111111111,-27.208333333333332,172.22222222222223,38.708333333333336,200,41C227.77777777777777,43.291666666666664,238.8888888888889,-19.958333333333332,266.6666666666667,-21C294.44444444444446,-22.041666666666668,305.5555555555556,32.875,333.33333333333337,36C361.11111111111114,39.125,372.22222222222223,-8.916666666666668,400,-6C427.77777777777777,-3.083333333333333,438.8888888888889,49.583333333333336,466.6666666666667,50C494.44444444444446,50.416666666666664,505.5555555555556,-0.45833333333333304,533.3333333333334,-4C561.1111111111111,-7.541666666666667,572.2222222222222,32.375,600,33C627.7777777777778,33.625,638.8888888888889,-1.625,666.6666666666667,-1C694.4444444444446,-0.375,707.6388888888889,33.708333333333336,733.3333333333334,36C759.0277777777778,38.291666666666664,778.1944444444445,15.416666666666666,790,10" transform="matrix(1,0,0,1,0,105)"></path><path d="M10,10C21.805555555555557,11.666666666666666,40.97222222222223,26.75,66.66666666666667,18C92.36111111111111,9.25,105.55555555555557,-36.791666666666664,133.33333333333334,-32C161.11111111111111,-27.208333333333332,172.22222222222223,38.708333333333336,200,41C227.77777777777777,43.291666666666664,238.8888888888889,-19.958333333333332,266.6666666666667,-21C294.44444444444446,-22.041666666666668,305.5555555555556,32.875,333.33333333333337,36C361.11111111111114,39.125,372.22222222222223,-8.916666666666668,400,-6C427.77777777777777,-3.083333333333333,438.8888888888889,49.583333333333336,466.6666666666667,50C494.44444444444446,50.416666666666664,505.5555555555556,-0.45833333333333304,533.3333333333334,-4C561.1111111111111,-7.541666666666667,572.2222222222222,32.375,600,33C627.7777777777778,33.625,638.8888888888889,-1.625,666.6666666666667,-1C694.4444444444446,-0.375,707.6388888888889,33.708333333333336,733.3333333333334,36C759.0277777777778,38.291666666666664,778.1944444444445,15.416666666666666,790,10" transform="matrix(1,0,0,1,0,70)"></path><path d="M10,10C21.805555555555557,11.666666666666666,40.97222222222223,26.75,66.66666666666667,18C92.36111111111111,9.25,105.55555555555557,-36.791666666666664,133.33333333333334,-32C161.11111111111111,-27.208333333333332,172.22222222222223,38.708333333333336,200,41C227.77777777777777,43.291666666666664,238.8888888888889,-19.958333333333332,266.6666666666667,-21C294.44444444444446,-22.041666666666668,305.5555555555556,32.875,333.33333333333337,36C361.11111111111114,39.125,372.22222222222223,-8.916666666666668,400,-6C427.77777777777777,-3.083333333333333,438.8888888888889,49.583333333333336,466.6666666666667,50C494.44444444444446,50.416666666666664,505.5555555555556,-0.45833333333333304,533.3333333333334,-4C561.1111111111111,-7.541666666666667,572.2222222222222,32.375,600,33C627.7777777777778,33.625,638.8888888888889,-1.625,666.6666666666667,-1C694.4444444444446,-0.375,707.6388888888889,33.708333333333336,733.3333333333334,36C759.0277777777778,38.291666666666664,778.1944444444445,15.416666666666666,790,10" transform="matrix(1,0,0,1,0,35)"></path></g></svg>