<svg xmlns="http://www.w3.org/2000/svg" version="1.1" xmlns:xlink="http://www.w3.org/1999/xlink" xmlns:svgjs="http://svgjs.dev/svgjs" viewBox="0 0 800 800"><defs><linearGradient x1="50%" y1="0%" x2="50%" y2="100%" id="ffflurry-grad" gradientTransform="rotate(270)"><stop stop-color="hsl(238, 82%, 13%)" stop-opacity="1" offset="0%"></stop><stop stop-color="hsl(272, 99%, 54%)" stop-opacity="1" offset="45%"></stop><stop stop-color="hsl(290, 87%, 47%)" stop-opacity="1" offset="100%"></stop></linearGradient></defs><rect width="100%" height="100%" fill="hsl(238, 82%, 13%)"></rect><g fill="url(#ffflurry-grad)"><rect width="470" height="3" x="164" y="43.5" rx="1.5" transform="rotate(45, 399, 45)" opacity="0.21"></rect><rect width="595" height="3" x="-248.5" y="454.5" rx="1.5" transform="rotate(45, 49, 456)" opacity="0.88"></rect><rect width="94" height="3" x="24" y="82.5" rx="1.5" transform="rotate(45, 71, 84)" opacity="0.22"></rect><rect width="63" height="3" x="609.5" y="237.5" rx="1.5" transform="rotate(45, 641, 239)" opacity="0.80"></rect><rect width="272" height="3" x="623" y="227.5" rx="1.5" transform="rotate(45, 759, 229)" opacity="0.63"></rect><rect width="172" height="3" x="195" y="516.5" rx="1.5" transform="rotate(45, 281, 518)" opacity="0.09"></rect><rect width="82" height="3" x="181" y="623.5" rx="1.5" transform="rotate(45, 222, 625)" opacity="0.39"></rect><rect width="101" height="3" x="181.5" y="748.5" rx="1.5" transform="rotate(45, 232, 750)" opacity="0.21"></rect><rect width="123" height="3" x="68.5" y="729.5" rx="1.5" transform="rotate(45, 130, 731)" opacity="0.87"></rect><rect width="313" height="3" x="-17.5" y="83.5" rx="1.5" transform="rotate(45, 139, 85)" opacity="0.78"></rect><rect width="150" height="3" x="116" y="152.5" rx="1.5" transform="rotate(45, 191, 154)" opacity="0.81"></rect><rect width="332" height="3" x="140" y="666.5" rx="1.5" transform="rotate(45, 306, 668)" opacity="0.34"></rect><rect width="58" height="3" x="403" y="118.5" rx="1.5" transform="rotate(45, 432, 120)" opacity="0.11"></rect><rect width="639" height="3" x="54.5" y="608.5" rx="1.5" transform="rotate(45, 374, 610)" opacity="0.64"></rect><rect width="106" height="3" x="443" y="329.5" rx="1.5" transform="rotate(45, 496, 331)" opacity="0.78"></rect><rect width="409" height="3" x="452.5" y="173.5" rx="1.5" transform="rotate(45, 657, 175)" opacity="0.79"></rect><rect width="208" height="3" x="665" y="433.5" rx="1.5" transform="rotate(45, 769, 435)" opacity="0.75"></rect><rect width="259" height="3" x="555.5" y="418.5" rx="1.5" transform="rotate(45, 685, 420)" opacity="0.46"></rect><rect width="172" height="3" x="143" y="55.5" rx="1.5" transform="rotate(45, 229, 57)" opacity="0.87"></rect><rect width="596" height="3" x="279" y="383.5" rx="1.5" transform="rotate(45, 577, 385)" opacity="0.52"></rect><rect width="127" height="3" x="504.5" y="283.5" rx="1.5" transform="rotate(45, 568, 285)" opacity="0.16"></rect><rect width="65" height="3" x="399.5" y="749.5" rx="1.5" transform="rotate(45, 432, 751)" opacity="0.76"></rect><rect width="520" height="3" x="462" y="150.5" rx="1.5" transform="rotate(45, 722, 152)" opacity="0.66"></rect><rect width="507" height="3" x="427.5" y="625.5" rx="1.5" transform="rotate(45, 681, 627)" opacity="0.33"></rect><rect width="289" height="3" x="-32.5" y="325.5" rx="1.5" transform="rotate(45, 112, 327)" opacity="0.64"></rect><rect width="273" height="3" x="174.5" y="157.5" rx="1.5" transform="rotate(45, 311, 159)" opacity="0.26"></rect><rect width="92" height="3" x="401" y="556.5" rx="1.5" transform="rotate(45, 447, 558)" opacity="0.66"></rect><rect width="519" height="3" x="-85.5" y="502.5" rx="1.5" transform="rotate(45, 174, 504)" opacity="0.30"></rect><rect width="299" height="3" x="586.5" y="734.5" rx="1.5" transform="rotate(45, 736, 736)" opacity="0.51"></rect><rect width="62" height="3" x="675" y="366.5" rx="1.5" transform="rotate(45, 706, 368)" opacity="0.86"></rect><rect width="330" height="3" x="-128" y="562.5" rx="1.5" transform="rotate(45, 37, 564)" opacity="0.17"></rect><rect width="375" height="3" x="298.5" y="619.5" rx="1.5" transform="rotate(45, 486, 621)" opacity="0.82"></rect><rect width="349" height="3" x="453.5" y="446.5" rx="1.5" transform="rotate(45, 628, 448)" opacity="0.33"></rect><rect width="73" height="3" x="67.5" y="274.5" rx="1.5" transform="rotate(45, 104, 276)" opacity="0.60"></rect><rect width="245" height="3" x="-102.5" y="351.5" rx="1.5" transform="rotate(45, 20, 353)" opacity="0.28"></rect><rect width="270" height="3" x="608" y="299.5" rx="1.5" transform="rotate(45, 743, 301)" opacity="0.46"></rect><rect width="40" height="3" x="10" y="38.5" rx="1.5" transform="rotate(45, 30, 40)" opacity="0.81"></rect><rect width="69" height="3" x="175.5" y="317.5" rx="1.5" transform="rotate(45, 210, 319)" opacity="0.89"></rect><rect width="357" height="3" x="316.5" y="707.5" rx="1.5" transform="rotate(45, 495, 709)" opacity="0.38"></rect><rect width="273" height="3" x="415.5" y="472.5" rx="1.5" transform="rotate(45, 552, 474)" opacity="0.90"></rect><rect width="340" height="3" x="171" y="749.5" rx="1.5" transform="rotate(45, 341, 751)" opacity="0.87"></rect><rect width="237" height="3" x="351.5" y="248.5" rx="1.5" transform="rotate(45, 470, 250)" opacity="0.83"></rect><rect width="91" height="3" x="139.5" y="237.5" rx="1.5" transform="rotate(45, 185, 239)" opacity="0.24"></rect><rect width="733" height="3" x="211.5" y="620.5" rx="1.5" transform="rotate(45, 578, 622)" opacity="0.24"></rect><rect width="234" height="3" x="596" y="42.5" rx="1.5" transform="rotate(45, 713, 44)" opacity="0.44"></rect><rect width="419" height="3" x="-169.5" y="714.5" rx="1.5" transform="rotate(45, 40, 716)" opacity="0.30"></rect><rect width="640" height="3" x="283" y="741.5" rx="1.5" transform="rotate(45, 603, 743)" opacity="0.81"></rect><rect width="689" height="3" x="33.5" y="481.5" rx="1.5" transform="rotate(45, 378, 483)" opacity="0.92"></rect><rect width="163" height="3" x="404.5" y="40.5" rx="1.5" transform="rotate(45, 486, 42)" opacity="0.44"></rect><rect width="287" height="3" x="620.5" y="596.5" rx="1.5" transform="rotate(45, 764, 598)" opacity="0.46"></rect><rect width="335" height="3" x="-136.5" y="204.5" rx="1.5" transform="rotate(45, 31, 206)" opacity="0.63"></rect><rect width="546" height="3" x="33" y="383.5" rx="1.5" transform="rotate(45, 306, 385)" opacity="0.95"></rect><rect width="121" height="3" x="60.5" y="404.5" rx="1.5" transform="rotate(45, 121, 406)" opacity="0.25"></rect><rect width="429" height="3" x="-111.5" y="214.5" rx="1.5" transform="rotate(45, 103, 216)" opacity="0.20"></rect><rect width="297" height="3" x="-58.5" y="149.5" rx="1.5" transform="rotate(45, 90, 151)" opacity="0.81"></rect><rect width="352" height="3" x="142" y="53.5" rx="1.5" transform="rotate(45, 318, 55)" opacity="0.28"></rect><rect width="171" height="3" x="36.5" y="22.5" rx="1.5" transform="rotate(45, 122, 24)" opacity="0.62"></rect><rect width="577" height="3" x="343.5" y="530.5" rx="1.5" transform="rotate(45, 632, 532)" opacity="0.82"></rect><rect width="93" height="3" x="404.5" y="409.5" rx="1.5" transform="rotate(45, 451, 411)" opacity="0.82"></rect><rect width="397" height="3" x="-135.5" y="366.5" rx="1.5" transform="rotate(45, 63, 368)" opacity="0.54"></rect><rect width="316" height="3" x="486" y="344.5" rx="1.5" transform="rotate(45, 644, 346)" opacity="0.97"></rect><rect width="87" height="3" x="446.5" y="172.5" rx="1.5" transform="rotate(45, 490, 174)" opacity="0.71"></rect><rect width="614" height="3" x="82" y="214.5" rx="1.5" transform="rotate(45, 389, 216)" opacity="0.73"></rect><rect width="361" height="3" x="-148.5" y="277.5" rx="1.5" transform="rotate(45, 32, 279)" opacity="0.67"></rect><rect width="151" height="3" x="-50.5" y="129.5" rx="1.5" transform="rotate(45, 25, 131)" opacity="0.36"></rect><rect width="93" height="3" x="727.5" y="91.5" rx="1.5" transform="rotate(45, 774, 93)" opacity="0.18"></rect><rect width="431" height="3" x="552.5" y="358.5" rx="1.5" transform="rotate(45, 768, 360)" opacity="0.57"></rect><rect width="416" height="3" x="290" y="510.5" rx="1.5" transform="rotate(45, 498, 512)" opacity="0.26"></rect><rect width="388" height="3" x="430" y="63.5" rx="1.5" transform="rotate(45, 624, 65)" opacity="0.23"></rect><rect width="748" height="3" x="-256" y="590.5" rx="1.5" transform="rotate(45, 118, 592)" opacity="0.13"></rect><rect width="250" height="3" x="446" y="170.5" rx="1.5" transform="rotate(45, 571, 172)" opacity="0.35"></rect><rect width="231" height="3" x="550.5" y="288.5" rx="1.5" transform="rotate(45, 666, 290)" opacity="0.55"></rect><rect width="329" height="3" x="567.5" y="500.5" rx="1.5" transform="rotate(45, 732, 502)" opacity="0.75"></rect><rect width="486" height="3" x="-40" y="412.5" rx="1.5" transform="rotate(45, 203, 414)" opacity="0.90"></rect><rect width="143" height="3" x="220.5" y="258.5" rx="1.5" transform="rotate(45, 292, 260)" opacity="0.31"></rect><rect width="549" height="3" x="115.5" y="317.5" rx="1.5" transform="rotate(45, 390, 319)" opacity="0.47"></rect><rect width="472" height="3" x="315" y="61.5" rx="1.5" transform="rotate(45, 551, 63)" opacity="0.29"></rect></g></svg>