<svg xmlns="http://www.w3.org/2000/svg" version="1.1" xmlns:xlink="http://www.w3.org/1999/xlink" xmlns:svgjs="http://svgjs.dev/svgjs" viewBox="0 0 800 800"><circle r="8.5" cx="565" cy="126" fill="hsl(219, 75%, 69%)" opacity="0.56"></circle><circle r="8.5" cx="655" cy="786" fill="hsl(291, 75%, 69%)" opacity="0.24"></circle><circle r="13" cx="134" cy="141" fill="hsl(273, 75%, 69%)" opacity="0.27"></circle><circle r="8.5" cx="332" cy="447" fill="hsl(172, 75%, 69%)" opacity="0.55"></circle><circle r="9.5" cx="616" cy="159" fill="hsl(278, 75%, 69%)" opacity="0.32"></circle><circle r="6" cx="456" cy="333" fill="hsl(112, 75%, 69%)" opacity="0.64"></circle><circle r="8" cx="583" cy="18" fill="hsl(138, 75%, 69%)" opacity="0.47"></circle><circle r="4" cx="9" cy="10" fill="hsl(180, 75%, 69%)" opacity="0.80"></circle><circle r="14.5" cx="689" cy="527" fill="hsl(268, 75%, 69%)" opacity="0.82"></circle><circle r="8.5" cx="136" cy="63" fill="hsl(234, 75%, 69%)" opacity="0.88"></circle><circle r="10.5" cx="746" cy="174" fill="hsl(209, 75%, 69%)" opacity="0.72"></circle><circle r="12" cx="568" cy="265" fill="hsl(241, 75%, 69%)" opacity="0.97"></circle><circle r="13.5" cx="685" cy="75" fill="hsl(235, 75%, 69%)" opacity="0.14"></circle><circle r="12" cx="108" cy="170" fill="hsl(281, 75%, 69%)" opacity="0.73"></circle><circle r="8.5" cx="445" cy="27" fill="hsl(63, 75%, 69%)" opacity="0.76"></circle><circle r="8" cx="780" cy="568" fill="hsl(157, 75%, 69%)" opacity="0.12"></circle><circle r="8" cx="241" cy="513" fill="hsl(246, 75%, 69%)" opacity="0.18"></circle><circle r="3" cx="38" cy="6" fill="hsl(180, 75%, 69%)" opacity="0.54"></circle><circle r="7.5" cx="18" cy="169" fill="hsl(285, 75%, 69%)" opacity="0.63"></circle><circle r="8" cx="509" cy="344" fill="hsl(155, 75%, 69%)" opacity="0.67"></circle><circle r="12" cx="296" cy="108" fill="hsl(166, 75%, 69%)" opacity="0.46"></circle><circle r="10" cx="47" cy="482" fill="hsl(269, 75%, 69%)" opacity="0.78"></circle><circle r="5.5" cx="357" cy="512" fill="hsl(149, 75%, 69%)" opacity="0.31"></circle><circle r="10.5" cx="572" cy="744" fill="hsl(241, 75%, 69%)" opacity="0.40"></circle><circle r="10" cx="171" cy="293" fill="hsl(276, 75%, 69%)" opacity="0.30"></circle><circle r="16" cx="232" cy="766" fill="hsl(253, 75%, 69%)" opacity="0.89"></circle><circle r="6.5" cx="437" cy="362" fill="hsl(107, 75%, 69%)" opacity="0.55"></circle><circle r="15" cx="215" cy="259" fill="hsl(260, 75%, 69%)" opacity="0.61"></circle><circle r="8.5" cx="317" cy="628" fill="hsl(184, 75%, 69%)" opacity="0.71"></circle><circle r="8.5" cx="14" cy="197" fill="hsl(266, 75%, 69%)" opacity="0.21"></circle><circle r="10" cx="166" cy="250" fill="hsl(276, 75%, 69%)" opacity="0.60"></circle><circle r="8" cx="325" cy="370" fill="hsl(172, 75%, 69%)" opacity="0.28"></circle><circle r="9.5" cx="319" cy="405" fill="hsl(184, 75%, 69%)" opacity="0.77"></circle><circle r="6" cx="400" cy="633" fill="hsl(120, 75%, 69%)" opacity="0.61"></circle><circle r="4.5" cx="462" cy="609" fill="hsl(112, 75%, 69%)" opacity="0.81"></circle><circle r="10.5" cx="700" cy="248" fill="hsl(256, 75%, 69%)" opacity="0.38"></circle><circle r="6.5" cx="298" cy="45" fill="hsl(133, 75%, 69%)" opacity="0.43"></circle><circle r="6" cx="755" cy="594" fill="hsl(193, 75%, 69%)" opacity="0.77"></circle><circle r="10" cx="249" cy="564" fill="hsl(246, 75%, 69%)" opacity="0.24"></circle><circle r="9" cx="148" cy="275" fill="hsl(279, 75%, 69%)" opacity="0.52"></circle><circle r="5.5" cx="8" cy="498" fill="hsl(265, 75%, 69%)" opacity="0.64"></circle><circle r="9" cx="598" cy="207" fill="hsl(270, 75%, 69%)" opacity="0.30"></circle><circle r="9" cx="384" cy="732" fill="hsl(129, 75%, 69%)" opacity="0.61"></circle><circle r="12" cx="544" cy="465" fill="hsl(207, 75%, 69%)" opacity="0.62"></circle><circle r="12.5" cx="132" cy="521" fill="hsl(279, 75%, 69%)" opacity="0.85"></circle><circle r="9" cx="695" cy="699" fill="hsl(268, 75%, 69%)" opacity="0.28"></circle><circle r="8" cx="411" cy="289" fill="hsl(113, 75%, 69%)" opacity="0.51"></circle><circle r="4" cx="750" cy="7" fill="hsl(211, 75%, 69%)" opacity="0.88"></circle><circle r="6.5" cx="537" cy="90" fill="hsl(145, 75%, 69%)" opacity="0.12"></circle><circle r="6" cx="402" cy="462" fill="hsl(113, 75%, 69%)" opacity="0.31"></circle><circle r="9" cx="590" cy="140" fill="hsl(254, 75%, 69%)" opacity="0.63"></circle><circle r="7.5" cx="29" cy="503" fill="hsl(268, 75%, 69%)" opacity="0.81"></circle><circle r="11" cx="647" cy="688" fill="hsl(293, 75%, 69%)" opacity="0.24"></circle><circle r="11" cx="90" cy="71" fill="hsl(246, 75%, 69%)" opacity="0.33"></circle><circle r="11.5" cx="682" cy="162" fill="hsl(271, 75%, 69%)" opacity="0.73"></circle><circle r="11.5" cx="568" cy="424" fill="hsl(241, 75%, 69%)" opacity="0.13"></circle><circle r="6" cx="375" cy="578" fill="hsl(129, 75%, 69%)" opacity="0.97"></circle><circle r="7" cx="465" cy="400" fill="hsl(119, 75%, 69%)" opacity="0.76"></circle><circle r="6.5" cx="421" cy="163" fill="hsl(110, 75%, 69%)" opacity="0.36"></circle><circle r="9" cx="284" cy="615" fill="hsl(218, 75%, 69%)" opacity="0.28"></circle><circle r="11.5" cx="509" cy="493" fill="hsl(155, 75%, 69%)" opacity="0.49"></circle><circle r="13.5" cx="44" cy="643" fill="hsl(269, 75%, 69%)" opacity="0.44"></circle><circle r="5.5" cx="752" cy="569" fill="hsl(193, 75%, 69%)" opacity="0.76"></circle><circle r="11.5" cx="529" cy="389" fill="hsl(189, 75%, 69%)" opacity="0.24"></circle><circle r="8" cx="354" cy="346" fill="hsl(149, 75%, 69%)" opacity="0.61"></circle><circle r="9.5" cx="637" cy="246" fill="hsl(292, 75%, 69%)" opacity="0.73"></circle><circle r="13" cx="575" cy="381" fill="hsl(257, 75%, 69%)" opacity="0.39"></circle><circle r="9" cx="393" cy="117" fill="hsl(104, 75%, 69%)" opacity="0.12"></circle><circle r="5" cx="411" cy="413" fill="hsl(113, 75%, 69%)" opacity="0.35"></circle><circle r="11.5" cx="77" cy="140" fill="hsl(285, 75%, 69%)" opacity="0.26"></circle><circle r="3.5" cx="479" cy="10" fill="hsl(70, 75%, 69%)" opacity="0.54"></circle><circle r="6" cx="360" cy="16" fill="hsl(87, 75%, 69%)" opacity="0.67"></circle><circle r="8.5" cx="542" cy="37" fill="hsl(111, 75%, 69%)" opacity="0.88"></circle><circle r="9" cx="518" cy="431" fill="hsl(172, 75%, 69%)" opacity="0.48"></circle><circle r="11" cx="646" cy="149" fill="hsl(278, 75%, 69%)" opacity="0.96"></circle><circle r="8" cx="12" cy="630" fill="hsl(265, 75%, 69%)" opacity="0.55"></circle><circle r="11" cx="616" cy="113" fill="hsl(253, 75%, 69%)" opacity="0.48"></circle><circle r="9.5" cx="510" cy="272" fill="hsl(155, 75%, 69%)" opacity="0.28"></circle><circle r="11" cx="128" cy="96" fill="hsl(252, 75%, 69%)" opacity="0.86"></circle><circle r="8" cx="327" cy="150" fill="hsl(156, 75%, 69%)" opacity="0.91"></circle><circle r="5" cx="451" cy="476" fill="hsl(112, 75%, 69%)" opacity="0.35"></circle><circle r="11" cx="18" cy="549" fill="hsl(266, 75%, 69%)" opacity="0.70"></circle><circle r="11.5" cx="603" cy="251" fill="hsl(280, 75%, 69%)" opacity="0.17"></circle><circle r="8" cx="532" cy="133" fill="hsl(173, 75%, 69%)" opacity="0.24"></circle><circle r="14" cx="634" cy="427" fill="hsl(292, 75%, 69%)" opacity="0.36"></circle><circle r="8" cx="363" cy="428" fill="hsl(138, 75%, 69%)" opacity="0.84"></circle><circle r="8" cx="700" cy="756" fill="hsl(256, 75%, 69%)" opacity="0.29"></circle><circle r="8" cx="754" cy="110" fill="hsl(190, 75%, 69%)" opacity="0.17"></circle><circle r="10.5" cx="165" cy="370" fill="hsl(276, 75%, 69%)" opacity="0.21"></circle><circle r="5.5" cx="756" cy="25" fill="hsl(205, 75%, 69%)" opacity="0.51"></circle><circle r="8" cx="369" cy="674" fill="hsl(138, 75%, 69%)" opacity="0.46"></circle><circle r="13" cx="56" cy="301" fill="hsl(271, 75%, 69%)" opacity="0.55"></circle><circle r="10" cx="489" cy="231" fill="hsl(141, 75%, 69%)" opacity="0.23"></circle><circle r="7.5" cx="328" cy="326" fill="hsl(172, 75%, 69%)" opacity="0.70"></circle><circle r="5" cx="302" cy="578" fill="hsl(196, 75%, 69%)" opacity="0.78"></circle><circle r="8.5" cx="355" cy="92" fill="hsl(112, 75%, 69%)" opacity="0.83"></circle><circle r="9.5" cx="583" cy="484" fill="hsl(257, 75%, 69%)" opacity="0.52"></circle><circle r="12.5" cx="18" cy="317" fill="hsl(266, 75%, 69%)" opacity="0.26"></circle><circle r="5.5" cx="752" cy="538" fill="hsl(193, 75%, 69%)" opacity="0.21"></circle><circle r="5" cx="789" cy="100" fill="hsl(151, 75%, 69%)" opacity="0.58"></circle><circle r="14" cx="540" cy="668" fill="hsl(207, 75%, 69%)" opacity="0.69"></circle><circle r="14" cx="80" cy="265" fill="hsl(274, 75%, 69%)" opacity="0.44"></circle><circle r="5" cx="446" cy="449" fill="hsl(108, 75%, 69%)" opacity="0.71"></circle><circle r="11" cx="682" cy="117" fill="hsl(256, 75%, 69%)" opacity="0.50"></circle><circle r="8" cx="475" cy="306" fill="hsl(128, 75%, 69%)" opacity="0.86"></circle><circle r="7" cx="111" cy="33" fill="hsl(207, 75%, 69%)" opacity="0.65"></circle><circle r="8" cx="501" cy="650" fill="hsl(155, 75%, 69%)" opacity="0.45"></circle><circle r="8.5" cx="470" cy="192" fill="hsl(119, 75%, 69%)" opacity="0.62"></circle><circle r="12" cx="617" cy="536" fill="hsl(287, 75%, 69%)" opacity="0.60"></circle><circle r="6" cx="466" cy="709" fill="hsl(119, 75%, 69%)" opacity="0.12"></circle><circle r="10.5" cx="280" cy="657" fill="hsl(218, 75%, 69%)" opacity="0.33"></circle><circle r="9" cx="765" cy="476" fill="hsl(175, 75%, 69%)" opacity="0.51"></circle><circle r="11" cx="722" cy="424" fill="hsl(242, 75%, 69%)" opacity="0.94"></circle><circle r="7.5" cx="390" cy="549" fill="hsl(120, 75%, 69%)" opacity="0.83"></circle><circle r="15" cx="655" cy="300" fill="hsl(291, 75%, 69%)" opacity="0.92"></circle><circle r="6.5" cx="777" cy="636" fill="hsl(157, 75%, 69%)" opacity="0.95"></circle><circle r="11" cx="158" cy="474" fill="hsl(278, 75%, 69%)" opacity="0.10"></circle><circle r="14" cx="21" cy="97" fill="hsl(281, 75%, 69%)" opacity="0.32"></circle><circle r="5.5" cx="788" cy="740" fill="hsl(141, 75%, 69%)" opacity="0.25"></circle><circle r="6" cx="787" cy="456" fill="hsl(157, 75%, 69%)" opacity="0.96"></circle><circle r="11" cx="707" cy="28" fill="hsl(209, 75%, 69%)" opacity="0.75"></circle><circle r="13" cx="236" cy="27" fill="hsl(168, 75%, 69%)" opacity="0.38"></circle><circle r="8.5" cx="57" cy="593" fill="hsl(271, 75%, 69%)" opacity="0.46"></circle><circle r="6" cx="349" cy="577" fill="hsl(160, 75%, 69%)" opacity="0.18"></circle><circle r="12" cx="538" cy="229" fill="hsl(207, 75%, 69%)" opacity="0.73"></circle><circle r="7" cx="567" cy="85" fill="hsl(175, 75%, 69%)" opacity="0.75"></circle><circle r="13.5" cx="717" cy="205" fill="hsl(242, 75%, 69%)" opacity="0.49"></circle><circle r="8.5" cx="726" cy="264" fill="hsl(226, 75%, 69%)" opacity="0.81"></circle><circle r="12" cx="659" cy="23" fill="hsl(192, 75%, 69%)" opacity="0.68"></circle><circle r="9" cx="228" cy="544" fill="hsl(253, 75%, 69%)" opacity="0.47"></circle><circle r="6.5" cx="143" cy="36" fill="hsl(200, 75%, 69%)" opacity="0.54"></circle><circle r="8" cx="735" cy="49" fill="hsl(206, 75%, 69%)" opacity="0.37"></circle><circle r="17.5" cx="594" cy="585" fill="hsl(270, 75%, 69%)" opacity="0.31"></circle><circle r="5.5" cx="427" cy="519" fill="hsl(107, 75%, 69%)" opacity="0.49"></circle><circle r="7.5" cx="343" cy="54" fill="hsl(102, 75%, 69%)" opacity="0.80"></circle><circle r="19" cx="148" cy="709" fill="hsl(279, 75%, 69%)" opacity="0.81"></circle><circle r="8" cx="537" cy="333" fill="hsl(189, 75%, 69%)" opacity="0.53"></circle><circle r="10" cx="625" cy="477" fill="hsl(287, 75%, 69%)" opacity="0.73"></circle><circle r="13" cx="568" cy="519" fill="hsl(241, 75%, 69%)" opacity="0.39"></circle><circle r="12" cx="715" cy="474" fill="hsl(242, 75%, 69%)" opacity="0.52"></circle><circle r="11" cx="135" cy="402" fill="hsl(279, 75%, 69%)" opacity="0.58"></circle><circle r="11.5" cx="142" cy="209" fill="hsl(279, 75%, 69%)" opacity="0.75"></circle><circle r="12" cx="719" cy="142" fill="hsl(235, 75%, 69%)" opacity="0.73"></circle><circle r="4.5" cx="515" cy="13" fill="hsl(88, 75%, 69%)" opacity="0.74"></circle><circle r="7.5" cx="273" cy="510" fill="hsl(228, 75%, 69%)" opacity="0.70"></circle><circle r="8" cx="331" cy="658" fill="hsl(172, 75%, 69%)" opacity="0.89"></circle><circle r="7.5" cx="519" cy="190" fill="hsl(172, 75%, 69%)" opacity="0.38"></circle><circle r="16" cx="166" cy="774" fill="hsl(276, 75%, 69%)" opacity="0.83"></circle><circle r="5.5" cx="320" cy="588" fill="hsl(184, 75%, 69%)" opacity="0.69"></circle><circle r="5.5" cx="146" cy="11" fill="hsl(178, 75%, 69%)" opacity="0.30"></circle><circle r="14" cx="95" cy="418" fill="hsl(276, 75%, 69%)" opacity="0.76"></circle><circle r="12" cx="526" cy="777" fill="hsl(189, 75%, 69%)" opacity="0.67"></circle><circle r="10" cx="197" cy="393" fill="hsl(270, 75%, 69%)" opacity="0.85"></circle><circle r="10.5" cx="667" cy="249" fill="hsl(286, 75%, 69%)" opacity="0.47"></circle><circle r="12.5" cx="287" cy="166" fill="hsl(209, 75%, 69%)" opacity="0.69"></circle><circle r="16" cx="239" cy="140" fill="hsl(225, 75%, 69%)" opacity="0.95"></circle><circle r="16" cx="227" cy="434" fill="hsl(253, 75%, 69%)" opacity="0.38"></circle><circle r="7" cx="407" cy="666" fill="hsl(113, 75%, 69%)" opacity="0.68"></circle><circle r="18.5" cx="187" cy="581" fill="hsl(273, 75%, 69%)" opacity="0.15"></circle><circle r="16.5" cx="214" cy="664" fill="hsl(260, 75%, 69%)" opacity="0.54"></circle><circle r="7.5" cx="784" cy="174" fill="hsl(158, 75%, 69%)" opacity="0.41"></circle><circle r="9.5" cx="690" cy="784" fill="hsl(268, 75%, 69%)" opacity="0.65"></circle><circle r="12.5" cx="79" cy="499" fill="hsl(274, 75%, 69%)" opacity="0.73"></circle><circle r="7.5" cx="500" cy="114" fill="hsl(123, 75%, 69%)" opacity="0.23"></circle><circle r="8" cx="727" cy="545" fill="hsl(226, 75%, 69%)" opacity="0.43"></circle><circle r="9.5" cx="45" cy="223" fill="hsl(269, 75%, 69%)" opacity="0.60"></circle><circle r="5" cx="200" cy="355" fill="hsl(270, 75%, 69%)" opacity="0.48"></circle><circle r="6" cx="375" cy="472" fill="hsl(138, 75%, 69%)" opacity="0.63"></circle><circle r="14.5" cx="105" cy="620" fill="hsl(277, 75%, 69%)" opacity="0.97"></circle><circle r="7.5" cx="316" cy="544" fill="hsl(184, 75%, 69%)" opacity="0.80"></circle><circle r="10.5" cx="27" cy="58" fill="hsl(245, 75%, 69%)" opacity="0.78"></circle><circle r="12.5" cx="613" cy="306" fill="hsl(287, 75%, 69%)" opacity="0.23"></circle><circle r="7.5" cx="56" cy="22" fill="hsl(197, 75%, 69%)" opacity="0.91"></circle><circle r="10" cx="645" cy="624" fill="hsl(293, 75%, 69%)" opacity="0.60"></circle><circle r="9.5" cx="438" cy="240" fill="hsl(108, 75%, 69%)" opacity="0.46"></circle><circle r="13.5" cx="31" cy="686" fill="hsl(268, 75%, 69%)" opacity="0.81"></circle><circle r="7.5" cx="759" cy="747" fill="hsl(193, 75%, 69%)" opacity="0.17"></circle><circle r="7" cx="335" cy="689" fill="hsl(172, 75%, 69%)" opacity="0.87"></circle><circle r="7.5" cx="155" cy="426" fill="hsl(278, 75%, 69%)" opacity="0.99"></circle><circle r="11" cx="576" cy="780" fill="hsl(257, 75%, 69%)" opacity="0.91"></circle><circle r="7" cx="770" cy="49" fill="hsl(191, 75%, 69%)" opacity="0.47"></circle><circle r="4" cx="102" cy="8" fill="hsl(180, 75%, 69%)" opacity="0.87"></circle><circle r="5" cx="359" cy="489" fill="hsl(149, 75%, 69%)" opacity="0.13"></circle><circle r="6.5" cx="491" cy="41" fill="hsl(80, 75%, 69%)" opacity="0.71"></circle><circle r="4.5" cx="461" cy="125" fill="hsl(104, 75%, 69%)" opacity="0.42"></circle><circle r="10" cx="41" cy="139" fill="hsl(292, 75%, 69%)" opacity="0.45"></circle><circle r="18" cx="53" cy="771" fill="hsl(271, 75%, 69%)" opacity="0.22"></circle><circle r="7" cx="397" cy="510" fill="hsl(120, 75%, 69%)" opacity="0.35"></circle><circle r="12.5" cx="535" cy="548" fill="hsl(189, 75%, 69%)" opacity="0.53"></circle><circle r="5" cx="442" cy="422" fill="hsl(108, 75%, 69%)" opacity="0.35"></circle><circle r="9" cx="22" cy="458" fill="hsl(266, 75%, 69%)" opacity="0.44"></circle><circle r="13.5" cx="90" cy="539" fill="hsl(276, 75%, 69%)" opacity="0.11"></circle><circle r="6" cx="382" cy="608" fill="hsl(129, 75%, 69%)" opacity="0.26"></circle><circle r="3.5" cx="792" cy="527" fill="hsl(141, 75%, 69%)" opacity="0.74"></circle><circle r="10.5" cx="395" cy="216" fill="hsl(120, 75%, 69%)" opacity="0.45"></circle><circle r="6.5" cx="513" cy="306" fill="hsl(172, 75%, 69%)" opacity="0.77"></circle><circle r="7" cx="345" cy="535" fill="hsl(160, 75%, 69%)" opacity="0.31"></circle><circle r="11.5" cx="62" cy="444" fill="hsl(271, 75%, 69%)" opacity="0.54"></circle><circle r="11.5" cx="119" cy="259" fill="hsl(278, 75%, 69%)" opacity="0.99"></circle><circle r="8" cx="424" cy="79" fill="hsl(79, 75%, 69%)" opacity="0.98"></circle><circle r="4.5" cx="447" cy="588" fill="hsl(108, 75%, 69%)" opacity="0.72"></circle><circle r="5.5" cx="788" cy="35" fill="hsl(190, 75%, 69%)" opacity="0.51"></circle><circle r="5.5" cx="524" cy="163" fill="hsl(172, 75%, 69%)" opacity="0.69"></circle><circle r="14.5" cx="99" cy="213" fill="hsl(276, 75%, 69%)" opacity="0.52"></circle><circle r="12.5" cx="110" cy="475" fill="hsl(277, 75%, 69%)" opacity="0.70"></circle><circle r="7.5" cx="446" cy="657" fill="hsl(108, 75%, 69%)" opacity="0.30"></circle><circle r="9" cx="494" cy="695" fill="hsl(141, 75%, 69%)" opacity="0.52"></circle><circle r="7.5" cx="358" cy="145" fill="hsl(137, 75%, 69%)" opacity="0.85"></circle><circle r="5" cx="420" cy="383" fill="hsl(109, 75%, 69%)" opacity="0.92"></circle><circle r="7" cx="785" cy="418" fill="hsl(157, 75%, 69%)" opacity="0.86"></circle><circle r="12.5" cx="743" cy="667" fill="hsl(210, 75%, 69%)" opacity="0.95"></circle><circle r="7" cx="625" cy="507" fill="hsl(287, 75%, 69%)" opacity="0.84"></circle><circle r="11.5" cx="202" cy="519" fill="hsl(265, 75%, 69%)" opacity="1.00"></circle><circle r="8" cx="380" cy="172" fill="hsl(127, 75%, 69%)" opacity="0.53"></circle><circle r="11" cx="613" cy="783" fill="hsl(287, 75%, 69%)" opacity="0.76"></circle><circle r="6" cx="306" cy="15" fill="hsl(117, 75%, 69%)" opacity="0.26"></circle><circle r="11.5" cx="275" cy="695" fill="hsl(228, 75%, 69%)" opacity="0.67"></circle><circle r="6" cx="416" cy="338" fill="hsl(109, 75%, 69%)" opacity="0.86"></circle><circle r="9.5" cx="573" cy="326" fill="hsl(241, 75%, 69%)" opacity="0.62"></circle><circle r="8.5" cx="769" cy="703" fill="hsl(175, 75%, 69%)" opacity="0.16"></circle><circle r="13.5" cx="254" cy="291" fill="hsl(237, 75%, 69%)" opacity="0.93"></circle><circle r="8" cx="360" cy="634" fill="hsl(149, 75%, 69%)" opacity="0.61"></circle><circle r="10.5" cx="64" cy="175" fill="hsl(284, 75%, 69%)" opacity="0.95"></circle><circle r="13" cx="529" cy="599" fill="hsl(189, 75%, 69%)" opacity="1.00"></circle><circle r="12" cx="205" cy="307" fill="hsl(265, 75%, 69%)" opacity="0.16"></circle><circle r="12.5" cx="705" cy="624" fill="hsl(256, 75%, 69%)" opacity="0.24"></circle><circle r="9" cx="127" cy="301" fill="hsl(279, 75%, 69%)" opacity="0.77"></circle><circle r="8.5" cx="738" cy="312" fill="hsl(210, 75%, 69%)" opacity="0.38"></circle><circle r="9" cx="508" cy="736" fill="hsl(155, 75%, 69%)" opacity="0.53"></circle><circle r="12.5" cx="601" cy="349" fill="hsl(280, 75%, 69%)" opacity="0.70"></circle><circle r="10.5" cx="288" cy="339" fill="hsl(207, 75%, 69%)" opacity="0.25"></circle><circle r="11.5" cx="183" cy="426" fill="hsl(273, 75%, 69%)" opacity="0.31"></circle><circle r="7.5" cx="284" cy="559" fill="hsl(218, 75%, 69%)" opacity="0.83"></circle><circle r="9" cx="731" cy="709" fill="hsl(226, 75%, 69%)" opacity="0.43"></circle><circle r="6.5" cx="408" cy="594" fill="hsl(113, 75%, 69%)" opacity="0.64"></circle><circle r="12" cx="614" cy="742" fill="hsl(287, 75%, 69%)" opacity="0.73"></circle><circle r="8" cx="771" cy="783" fill="hsl(175, 75%, 69%)" opacity="0.17"></circle><circle r="8.5" cx="60" cy="60" fill="hsl(242, 75%, 69%)" opacity="0.92"></circle><circle r="10.5" cx="661" cy="596" fill="hsl(291, 75%, 69%)" opacity="0.17"></circle><circle r="10.5" cx="112" cy="329" fill="hsl(277, 75%, 69%)" opacity="0.63"></circle><circle r="12" cx="675" cy="736" fill="hsl(286, 75%, 69%)" opacity="0.71"></circle><circle r="9.5" cx="586" cy="177" fill="hsl(256, 75%, 69%)" opacity="0.18"></circle><circle r="7.5" cx="730" cy="579" fill="hsl(226, 75%, 69%)" opacity="0.20"></circle><circle r="9" cx="550" cy="299" fill="hsl(207, 75%, 69%)" opacity="0.75"></circle><circle r="6" cx="282" cy="533" fill="hsl(218, 75%, 69%)" opacity="0.39"></circle><circle r="13" cx="718" cy="346" fill="hsl(242, 75%, 69%)" opacity="0.37"></circle><circle r="4" cx="121" cy="8" fill="hsl(180, 75%, 69%)" opacity="0.48"></circle><circle r="8" cx="562" cy="194" fill="hsl(225, 75%, 69%)" opacity="0.22"></circle><circle r="4.5" cx="446" cy="107" fill="hsl(90, 75%, 69%)" opacity="0.37"></circle><circle r="6.5" cx="307" cy="714" fill="hsl(196, 75%, 69%)" opacity="0.93"></circle><circle r="6.5" cx="341" cy="605" fill="hsl(160, 75%, 69%)" opacity="0.91"></circle><circle r="7" cx="52" cy="196" fill="hsl(271, 75%, 69%)" opacity="0.24"></circle><circle r="8.5" cx="387" cy="780" fill="hsl(129, 75%, 69%)" opacity="0.47"></circle><circle r="9.5" cx="348" cy="251" fill="hsl(160, 75%, 69%)" opacity="0.84"></circle><circle r="10.5" cx="83" cy="585" fill="hsl(274, 75%, 69%)" opacity="0.79"></circle><circle r="7.5" cx="427" cy="562" fill="hsl(107, 75%, 69%)" opacity="0.92"></circle><circle r="8" cx="326" cy="481" fill="hsl(172, 75%, 69%)" opacity="0.42"></circle><circle r="8.5" cx="655" cy="479" fill="hsl(291, 75%, 69%)" opacity="0.92"></circle><circle r="5.5" cx="415" cy="438" fill="hsl(109, 75%, 69%)" opacity="0.13"></circle><circle r="6" cx="489" cy="420" fill="hsl(141, 75%, 69%)" opacity="0.70"></circle><circle r="20" cx="90" cy="678" fill="hsl(276, 75%, 69%)" opacity="0.88"></circle><circle r="11" cx="253" cy="378" fill="hsl(237, 75%, 69%)" opacity="0.86"></circle><circle r="8" cx="706" cy="728" fill="hsl(256, 75%, 69%)" opacity="0.69"></circle><circle r="11.5" cx="129" cy="365" fill="hsl(279, 75%, 69%)" opacity="0.77"></circle><circle r="11.5" cx="332" cy="765" fill="hsl(172, 75%, 69%)" opacity="0.26"></circle><circle r="6.5" cx="787" cy="12" fill="hsl(210, 75%, 69%)" opacity="0.50"></circle><circle r="10" cx="548" cy="719" fill="hsl(207, 75%, 69%)" opacity="0.45"></circle><circle r="8" cx="772" cy="137" fill="hsl(176, 75%, 69%)" opacity="0.62"></circle><circle r="5" cx="448" cy="158" fill="hsl(108, 75%, 69%)" opacity="0.77"></circle><circle r="10" cx="739" cy="507" fill="hsl(210, 75%, 69%)" opacity="0.16"></circle><circle r="11.5" cx="23" cy="593" fill="hsl(266, 75%, 69%)" opacity="0.58"></circle><circle r="9.5" cx="288" cy="379" fill="hsl(207, 75%, 69%)" opacity="0.31"></circle><circle r="10.5" cx="645" cy="655" fill="hsl(293, 75%, 69%)" opacity="0.66"></circle><circle r="13.5" cx="196" cy="473" fill="hsl(270, 75%, 69%)" opacity="0.29"></circle><circle r="9" cx="777" cy="219" fill="hsl(157, 75%, 69%)" opacity="0.57"></circle><circle r="11" cx="331" cy="208" fill="hsl(172, 75%, 69%)" opacity="0.28"></circle><circle r="5.5" cx="471" cy="639" fill="hsl(119, 75%, 69%)" opacity="0.32"></circle><circle r="5.5" cx="185" cy="350" fill="hsl(273, 75%, 69%)" opacity="0.36"></circle><circle r="7" cx="277" cy="63" fill="hsl(154, 75%, 69%)" opacity="0.94"></circle><circle r="8" cx="84" cy="23" fill="hsl(195, 75%, 69%)" opacity="0.93"></circle><circle r="12" cx="183" cy="215" fill="hsl(273, 75%, 69%)" opacity="0.55"></circle><circle r="6" cx="10" cy="39" fill="hsl(231, 75%, 69%)" opacity="0.52"></circle><circle r="14.5" cx="207" cy="717" fill="hsl(265, 75%, 69%)" opacity="0.57"></circle><circle r="5" cx="27" cy="21" fill="hsl(197, 75%, 69%)" opacity="0.94"></circle><circle r="12.5" cx="25" cy="737" fill="hsl(266, 75%, 69%)" opacity="0.13"></circle><circle r="16" cx="37" cy="384" fill="hsl(268, 75%, 69%)" opacity="0.66"></circle><circle r="6" cx="783" cy="675" fill="hsl(157, 75%, 69%)" opacity="0.39"></circle><circle r="12" cx="700" cy="577" fill="hsl(268, 75%, 69%)" opacity="0.99"></circle><circle r="7" cx="482" cy="455" fill="hsl(128, 75%, 69%)" opacity="0.73"></circle><circle r="11" cx="643" cy="722" fill="hsl(293, 75%, 69%)" opacity="0.91"></circle><circle r="14" cx="651" cy="558" fill="hsl(291, 75%, 69%)" opacity="0.41"></circle><circle r="10" cx="744" cy="622" fill="hsl(210, 75%, 69%)" opacity="0.60"></circle><circle r="4.5" cx="734" cy="792" fill="hsl(226, 75%, 69%)" opacity="0.42"></circle><circle r="9" cx="355" cy="290" fill="hsl(149, 75%, 69%)" opacity="0.60"></circle><circle r="12.5" cx="21" cy="249" fill="hsl(266, 75%, 69%)" opacity="0.54"></circle><circle r="8" cx="301" cy="497" fill="hsl(196, 75%, 69%)" opacity="0.43"></circle><circle r="17" cx="587" cy="641" fill="hsl(257, 75%, 69%)" opacity="0.63"></circle><circle r="8" cx="385" cy="326" fill="hsl(129, 75%, 69%)" opacity="0.68"></circle><circle r="9" cx="596" cy="77" fill="hsl(200, 75%, 69%)" opacity="0.43"></circle><circle r="10.5" cx="280" cy="422" fill="hsl(218, 75%, 69%)" opacity="0.11"></circle><circle r="12.5" cx="283" cy="219" fill="hsl(218, 75%, 69%)" opacity="0.72"></circle><circle r="13.5" cx="668" cy="200" fill="hsl(286, 75%, 69%)" opacity="0.73"></circle><circle r="9" cx="398" cy="37" fill="hsl(71, 75%, 69%)" opacity="0.13"></circle><circle r="5" cx="452" cy="501" fill="hsl(112, 75%, 69%)" opacity="0.75"></circle><circle r="7" cx="452" cy="278" fill="hsl(112, 75%, 69%)" opacity="0.86"></circle><circle r="10.5" cx="631" cy="204" fill="hsl(292, 75%, 69%)" opacity="0.12"></circle><circle r="7" cx="551" cy="163" fill="hsl(223, 75%, 69%)" opacity="0.58"></circle><circle r="11" cx="50" cy="536" fill="hsl(269, 75%, 69%)" opacity="0.85"></circle><circle r="10" cx="132" cy="447" fill="hsl(279, 75%, 69%)" opacity="0.74"></circle><circle r="10" cx="160" cy="330" fill="hsl(278, 75%, 69%)" opacity="0.92"></circle><circle r="16" cx="596" cy="697" fill="hsl(270, 75%, 69%)" opacity="1.00"></circle><circle r="15.5" cx="197" cy="172" fill="hsl(262, 75%, 69%)" opacity="0.19"></circle><circle r="11" cx="640" cy="79" fill="hsl(232, 75%, 69%)" opacity="0.65"></circle><circle r="14.5" cx="233" cy="616" fill="hsl(253, 75%, 69%)" opacity="0.36"></circle><circle r="12" cx="234" cy="339" fill="hsl(253, 75%, 69%)" opacity="0.96"></circle><circle r="7.5" cx="751" cy="284" fill="hsl(193, 75%, 69%)" opacity="0.36"></circle><circle r="7.5" cx="755" cy="427" fill="hsl(193, 75%, 69%)" opacity="0.31"></circle><circle r="11.5" cx="71" cy="104" fill="hsl(279, 75%, 69%)" opacity="0.27"></circle><circle r="11" cx="17" cy="422" fill="hsl(266, 75%, 69%)" opacity="0.11"></circle><circle r="9" cx="478" cy="533" fill="hsl(128, 75%, 69%)" opacity="0.62"></circle><circle r="12.5" cx="696" cy="297" fill="hsl(268, 75%, 69%)" opacity="0.90"></circle><circle r="5.5" cx="188" cy="328" fill="hsl(270, 75%, 69%)" opacity="0.45"></circle><circle r="9" cx="218" cy="372" fill="hsl(260, 75%, 69%)" opacity="0.28"></circle><circle r="7" cx="508" cy="75" fill="hsl(110, 75%, 69%)" opacity="0.29"></circle><circle r="15.5" cx="129" cy="576" fill="hsl(279, 75%, 69%)" opacity="0.29"></circle><circle r="12" cx="695" cy="664" fill="hsl(268, 75%, 69%)" opacity="0.43"></circle><circle r="12.5" cx="632" cy="387" fill="hsl(292, 75%, 69%)" opacity="0.46"></circle><circle r="15.5" cx="76" cy="354" fill="hsl(274, 75%, 69%)" opacity="0.96"></circle><circle r="6.5" cx="336" cy="720" fill="hsl(172, 75%, 69%)" opacity="0.27"></circle><circle r="11.5" cx="183" cy="28" fill="hsl(190, 75%, 69%)" opacity="0.57"></circle><circle r="6.5" cx="433" cy="614" fill="hsl(107, 75%, 69%)" opacity="0.52"></circle><circle r="4.5" cx="471" cy="150" fill="hsl(118, 75%, 69%)" opacity="0.57"></circle><circle r="9" cx="644" cy="762" fill="hsl(293, 75%, 69%)" opacity="0.42"></circle><circle r="12.5" cx="596" cy="450" fill="hsl(270, 75%, 69%)" opacity="0.70"></circle><circle r="9" cx="465" cy="778" fill="hsl(119, 75%, 69%)" opacity="0.20"></circle><circle r="7.5" cx="755" cy="245" fill="hsl(193, 75%, 69%)" opacity="0.39"></circle><circle r="14" cx="651" cy="348" fill="hsl(291, 75%, 69%)" opacity="0.87"></circle><circle r="6" cx="389" cy="398" fill="hsl(120, 75%, 69%)" opacity="0.56"></circle><circle r="9.5" cx="279" cy="458" fill="hsl(218, 75%, 69%)" opacity="0.78"></circle><circle r="6.5" cx="471" cy="569" fill="hsl(119, 75%, 69%)" opacity="0.46"></circle><circle r="12" cx="613" cy="40" fill="hsl(187, 75%, 69%)" opacity="0.46"></circle><circle r="10.5" cx="777" cy="349" fill="hsl(157, 75%, 69%)" opacity="0.27"></circle><circle r="7.5" cx="784" cy="288" fill="hsl(157, 75%, 69%)" opacity="0.63"></circle><circle r="19.5" cx="154" cy="644" fill="hsl(278, 75%, 69%)" opacity="0.36"></circle><circle r="9" cx="760" cy="387" fill="hsl(193, 75%, 69%)" opacity="0.78"></circle><circle r="11.5" cx="206" cy="82" fill="hsl(212, 75%, 69%)" opacity="0.41"></circle><circle r="6" cx="775" cy="77" fill="hsl(180, 75%, 69%)" opacity="0.98"></circle><circle r="7.5" cx="415" cy="701" fill="hsl(109, 75%, 69%)" opacity="0.42"></circle><circle r="3.5" cx="792" cy="652" fill="hsl(141, 75%, 69%)" opacity="0.23"></circle><circle r="6.5" cx="726" cy="771" fill="hsl(226, 75%, 69%)" opacity="0.26"></circle><circle r="9" cx="440" cy="740" fill="hsl(108, 75%, 69%)" opacity="0.53"></circle><circle r="14.5" cx="281" cy="759" fill="hsl(218, 75%, 69%)" opacity="0.17"></circle><circle r="6" cx="489" cy="608" fill="hsl(141, 75%, 69%)" opacity="0.31"></circle><circle r="12" cx="243" cy="220" fill="hsl(246, 75%, 69%)" opacity="0.55"></circle><circle r="4" cx="792" cy="63" fill="hsl(166, 75%, 69%)" opacity="0.90"></circle><circle r="7" cx="497" cy="150" fill="hsl(140, 75%, 69%)" opacity="0.73"></circle><circle r="16.5" cx="690" cy="385" fill="hsl(268, 75%, 69%)" opacity="0.96"></circle><circle r="8.5" cx="12" cy="139" fill="hsl(294, 75%, 69%)" opacity="0.57"></circle><circle r="8" cx="270" cy="588" fill="hsl(228, 75%, 69%)" opacity="0.51"></circle><circle r="12.5" cx="175" cy="110" fill="hsl(244, 75%, 69%)" opacity="0.73"></circle><circle r="7" cx="365" cy="381" fill="hsl(138, 75%, 69%)" opacity="0.63"></circle><circle r="9.5" cx="737" cy="82" fill="hsl(210, 75%, 69%)" opacity="0.87"></circle><circle r="14" cx="299" cy="288" fill="hsl(207, 75%, 69%)" opacity="0.90"></circle><circle r="19" cx="108" cy="756" fill="hsl(277, 75%, 69%)" opacity="0.98"></circle><circle r="11" cx="167" cy="526" fill="hsl(276, 75%, 69%)" opacity="0.21"></circle><circle r="10.5" cx="246" cy="481" fill="hsl(246, 75%, 69%)" opacity="0.86"></circle><circle r="9.5" cx="681" cy="484" fill="hsl(278, 75%, 69%)" opacity="0.33"></circle><circle r="5" cx="773" cy="525" fill="hsl(175, 75%, 69%)" opacity="0.78"></circle><circle r="6.5" cx="471" cy="77" fill="hsl(85, 75%, 69%)" opacity="0.16"></circle><circle r="10" cx="246" cy="86" fill="hsl(189, 75%, 69%)" opacity="0.38"></circle><circle r="14" cx="680" cy="438" fill="hsl(278, 75%, 69%)" opacity="0.73"></circle><circle r="6.5" cx="786" cy="603" fill="hsl(157, 75%, 69%)" opacity="0.14"></circle><circle r="7" cx="728" cy="744" fill="hsl(226, 75%, 69%)" opacity="0.62"></circle><circle r="8" cx="481" cy="367" fill="hsl(128, 75%, 69%)" opacity="0.66"></circle></svg>